<svg xmlns="http://www.w3.org/2000/svg" version="1.0" width="64.000000pt" height="64.000000pt" viewBox="0 0 64.000000 64.000000" preserveAspectRatio="xMidYMid meet">
<g transform="translate(0.000000,64.000000) scale(0.100000,-0.100000)" fill="#000000" stroke="none">
<path d="M59 381 c-39 -40 -39 -82 0 -122 46 -46 109 -34 138 26 16 33 16 37 0 70 -29 60 -92 72 -138 26z m91 -21 c25 -25 25 -55 0 -80 -24 -24 -29 -24 -58 -4 -30 20 -30 68 0 88 29 20 34 20 58 -4z"/>
<path d="M237 404 c-12 -13 -8 -34 8 -34 11 0 15 -12 15 -50 0 -38 -4 -50 -15 -50 -8 0 -15 -8 -15 -17 0 -16 11 -18 90 -18 79 0 90 2 90 18 0 9 -7 17 -15 17 -11 0 -15 12 -15 50 0 39 4 50 16 50 9 0 14 7 12 18 -3 14 -17 18 -83 20 -44 2 -84 0 -88 -4z m103 -84 c0 -43 -3 -50 -20 -50 -17 0 -20 7 -20 50 0 43 3 50 20 50 17 0 20 -7 20 -50z"/>
<path d="M482 400 c-12 -5 -30 -25 -39 -45 -16 -33 -16 -37 0 -70 17 -35 49 -55 88 -55 32 0 79 53 79 90 0 22 -9 41 -29 61 -30 30 -58 35 -99 19z m66 -36 c30 -20 30 -68 0 -88 -12 -9 -26 -16 -30 -16 -16 0 -48 40 -48 60 0 20 32 60 48 60 4 0 18 -7 30 -16z"/>
</g>
</svg>